<svg width="158" height="156" viewBox="0 0 158 156" fill="none" xmlns="http://www.w3.org/2000/svg">
<path d="M20.5803 33.5221C20.9962 33.6682 21.4365 33.6439 21.9992 33.4978C22.5618 33.3517 23.2468 33.1082 24.0296 32.8403C23.3202 32.7673 22.6597 32.7673 22.0726 32.889C21.4854 33.0108 20.9473 33.2299 20.5803 33.5221Z" fill="#10B981"/>
<path d="M149.699 124.933C149.65 125.03 149.576 125.128 149.503 125.249C149.576 125.152 149.699 125.079 149.699 124.933Z" fill="#10B981"/>
<path d="M108.527 51.3708C108.527 51.3708 108.796 51.2491 109.065 51.1517C109.334 51.0299 109.628 50.9325 109.628 50.9325C109.848 51.2734 109.97 51.5413 110.068 51.7604C110.141 51.9796 110.19 52.1501 110.19 52.2962C110.215 52.5884 110.092 52.7345 109.994 52.8806C109.897 53.0267 109.799 53.1484 109.823 53.3919C109.823 53.6111 109.946 53.9276 110.215 54.439C110.459 54.4633 110.631 54.5607 110.802 54.6825C110.875 54.7555 110.949 54.8286 111.022 54.9016C111.071 54.9747 111.12 55.0721 111.169 55.1695C111.218 55.2669 111.267 55.3643 111.291 55.4617C111.316 55.5591 111.34 55.6808 111.364 55.7782C111.413 55.9974 111.413 56.2165 111.438 56.46V56.8009C111.438 56.9227 111.438 57.0201 111.438 57.1175C111.438 57.3366 111.413 57.5314 111.413 57.7019C111.413 57.8723 111.413 58.0428 111.462 58.1889C111.511 58.335 111.585 58.4324 111.682 58.5298C111.609 58.5298 111.56 58.7733 111.462 59.0168C111.438 59.0899 111.413 59.1386 111.389 59.1873C111.364 59.236 111.316 59.2847 111.267 59.3334C111.169 59.4064 111.071 59.4551 110.949 59.4308C111.169 59.5282 111.267 59.6499 111.34 59.796C111.364 59.8691 111.389 59.9421 111.389 60.0152C111.389 60.0882 111.364 60.1613 111.34 60.2587C111.291 60.4291 111.242 60.5996 111.193 60.77C111.12 60.9405 111.071 61.1353 111.095 61.3301C111.291 61.6466 111.389 61.2083 111.707 61.0622C111.707 61.0622 111.707 61.184 111.682 61.3301C111.682 61.4031 111.682 61.5249 111.682 61.6223C111.682 61.671 111.682 61.7197 111.682 61.7927C111.682 61.8414 111.658 61.9145 111.658 61.9632C111.634 62.2067 111.609 62.4258 111.585 62.6206C111.585 62.718 111.56 62.7911 111.56 62.8398C111.56 62.8885 111.536 62.9128 111.536 62.9128C110.997 63.5459 110.459 63.4972 110.631 62.7424C110.582 62.8885 110.508 63.0346 110.435 63.205C110.361 63.3755 110.264 63.5703 110.166 63.7651C109.994 64.1791 109.725 64.6417 109.432 65.1774C108.845 66.2245 107.988 67.4907 106.888 68.8056C106.741 68.976 106.594 69.1465 106.472 69.2926C106.325 69.4631 106.154 69.6092 106.007 69.7796C105.836 69.9501 105.713 70.1205 105.542 70.291C105.371 70.4614 105.2 70.6075 105.028 70.778C104.882 70.9484 104.661 71.1189 104.49 71.2893C104.294 71.4598 104.123 71.6302 103.903 71.825C103.487 72.1659 103.096 72.5312 102.631 72.8721C100.87 74.2844 98.7657 75.648 96.4417 76.9629C95.2674 77.6204 94.0443 78.2535 92.7722 78.8622C91.5001 79.471 90.2035 80.0554 88.8825 80.6154C88.2219 80.9076 87.5614 81.1755 86.9009 81.4434C86.2159 81.7112 85.5799 81.9791 84.8949 82.2226C83.5739 82.7339 82.2773 83.2453 81.0297 83.6592C76.088 85.4611 71.9782 86.6786 69.7764 87.4092C70.437 87.5796 71.4155 87.3361 72.4185 87.1656C73.397 86.9952 74.3756 86.8247 75.0606 87.1656C72.9078 88.4806 71.5378 87.9936 70.6816 88.9189C70.3391 88.6023 69.8498 88.5293 69.2627 88.5293C68.6756 88.5536 67.9661 88.6754 67.2567 88.8215C66.8897 88.8945 66.5228 88.9676 66.1803 89.0163C65.8134 89.065 65.4464 89.1137 65.1039 89.1137C64.3945 89.138 63.734 89.065 63.1958 88.7728L62.7065 89.7955L61.4099 89.5033C60.7739 89.6981 60.1867 89.8685 59.6975 90.039C59.1837 90.1851 58.7434 90.3068 58.352 90.4286C57.5691 90.6477 56.982 90.8182 56.5661 90.9399C55.7099 91.1834 55.4408 91.2321 55.2206 91.2565C55.0005 91.2808 54.7803 91.2565 54.0709 91.3295C53.7039 91.3539 53.2146 91.4269 52.5052 91.4756C51.7958 91.5487 50.8906 91.6461 49.7164 91.7922C48.3464 92.0113 47.1721 92.2305 46.1202 92.4983C45.0683 92.7419 44.1387 92.961 43.3069 93.1802C42.891 93.3019 42.4752 93.3993 42.0837 93.4724C41.6923 93.5454 41.3009 93.6185 40.9095 93.6672C40.1511 93.7646 39.4172 93.8376 38.6344 93.7402C39.0992 93.7402 40.3468 94.2029 38.9279 94.5194C38.7812 94.1298 37.8271 94.3246 36.8241 94.4951C35.8211 94.6899 34.7447 94.836 34.3777 94.4464C34.0352 94.4707 33.4726 94.4951 32.8854 94.5438C32.7387 94.5438 32.5919 94.5681 32.4206 94.5681L32.0782 94.5925C31.858 94.6168 31.6378 94.6412 31.4421 94.6655C31.0507 94.7142 30.7327 94.7873 30.5859 94.9334C30.4146 95.0795 30.4146 95.2743 30.6593 95.5421C30.3902 95.2743 29.6563 95.0064 29.2404 94.7629C28.849 94.5194 28.6777 94.3246 29.3138 94.1785C28.9713 94.1055 28.6777 94.008 28.4576 93.9594C28.2374 93.8863 28.1151 93.8863 27.9927 93.9594C27.9927 93.9594 27.9927 93.9837 28.0417 94.0081C28.0661 94.0324 28.0906 94.1055 28.164 94.1542C28.1885 94.1785 28.2129 94.2029 28.2374 94.2272C28.2618 94.2516 28.2863 94.2759 28.3352 94.3003C28.3842 94.349 28.4086 94.3733 28.4086 94.3733C28.1885 94.349 28.0417 94.3003 27.9194 94.2759C27.8949 94.2759 27.8704 94.2516 27.8704 94.2516C27.846 94.2516 27.8215 94.2272 27.8215 94.2272L27.797 94.2029V94.2272L27.7726 94.2759C26.9408 96.1752 26.2069 97.4414 25.5953 98.2937C24.9837 99.146 24.47 99.6086 24.2254 99.8278C23.9807 100.023 23.9563 99.9739 24.2988 99.8521C24.2743 99.8521 24.103 99.9252 24.0541 99.9495L24.0297 99.9739C24.0297 99.9739 24.0541 99.9739 24.0541 99.9495C24.0786 99.9495 24.0786 99.9252 24.0786 99.9252C24.0786 99.9252 24.0541 99.9495 24.0297 99.9739C24.0541 99.9739 24.0541 99.9495 24.0541 99.9495C24.103 99.9252 24.152 99.9008 24.1764 99.8765C24.2498 99.8521 24.3232 99.8034 24.3966 99.7791H24.4455C24.7391 99.2433 24.0541 100.51 24.1275 100.363V100.339L24.0786 100.217C24.0541 100.144 24.0297 100.047 24.0052 99.9739C23.9563 99.8278 23.9073 99.6573 23.8339 99.5112V99.4869H23.8584L23.9318 99.5599C23.9563 99.5843 24.0052 99.6329 24.0297 99.6573C24.0786 99.7303 24.1275 99.8034 24.1764 99.8521C24.3477 99.8278 24.47 99.8278 24.5923 99.8278C24.788 99.8278 24.9837 99.8278 25.155 99.8278C25.2039 99.8278 25.2284 99.8278 25.2773 99.8278C25.3262 99.8278 25.3996 99.8278 25.4485 99.8278C25.5464 99.8278 25.6442 99.8521 25.7421 99.8521C25.84 99.8521 25.9133 99.8764 26.0112 99.9008C26.0601 99.9008 26.0846 99.9252 26.1335 99.9252C26.158 99.9252 26.2314 99.9252 26.2803 99.9495C26.2803 99.9495 26.2069 99.9495 26.1335 99.9252C26.0601 99.9008 25.9378 99.9008 25.791 99.8765C25.6442 99.8521 25.473 99.8521 25.3018 99.8278C25.1794 99.8034 25.0327 99.8034 24.8859 99.8034C24.8125 99.8034 24.7391 99.8034 24.6657 99.8034C24.6168 99.8034 24.5679 99.8034 24.5434 99.8034C24.4455 99.8034 24.3721 99.8278 24.2743 99.8278H24.2498H24.2254C24.2254 99.8034 24.2009 99.8034 24.2009 99.7791C24.1764 99.7547 24.1764 99.7304 24.152 99.706C24.1275 99.6573 24.1031 99.633 24.1031 99.633C24.1275 99.6817 24.152 99.706 24.1764 99.7547L24.2009 99.8034C24.2009 99.8034 24.2009 99.8278 24.2254 99.8278H24.2498C24.3232 99.8034 24.4211 99.8034 24.4945 99.8034H24.6412C24.6657 99.8034 24.6902 99.8034 24.7146 99.8034C24.837 99.8034 24.9348 99.8034 25.0571 99.8034H25.2039C25.2528 99.8034 25.3018 99.8034 25.3752 99.8278C25.5219 99.8278 25.6687 99.8521 25.791 99.8521C25.9378 99.8765 26.0357 99.9008 26.1824 99.9252C26.3537 99.9495 26.5005 99.9739 26.6717 99.9982C26.8185 100.023 26.9653 100.071 27.1121 100.096C27.1855 100.12 27.2833 100.144 27.3567 100.144L27.6258 100.217C27.797 100.266 27.9683 100.315 28.1151 100.363L28.3597 100.437L28.6288 100.51C28.9958 100.631 29.3382 100.753 29.6807 100.899C30.0477 101.045 30.4146 101.191 30.7571 101.362L31.0018 101.484L31.0752 101.508V101.484L31.0507 101.459V101.411C31.0507 101.386 31.0507 101.337 31.0507 101.289C31.0507 101.24 31.0752 101.191 31.0752 101.143C31.1241 100.924 31.2219 100.607 31.3443 100.242C31.3443 100.242 31.2464 100.339 31.173 100.437C31.0752 100.534 31.0262 100.607 31.0018 100.607C31.0018 100.534 31.0018 100.485 31.0262 100.412C31.0507 100.339 31.0752 100.266 31.0996 100.169C31.1241 100.071 31.173 99.9982 31.2219 99.8765L31.2464 99.8034C31.2709 99.7791 31.2953 99.7304 31.3198 99.706C31.3687 99.6329 31.4176 99.5599 31.4666 99.4869C31.5644 99.3408 31.6867 99.1703 31.8091 99.0242C31.9314 98.8538 32.0782 98.7077 32.2249 98.5372C32.3717 98.3668 32.5185 98.1719 32.6897 98.0015C32.861 97.831 33.0322 97.6606 33.2279 97.4658C33.9863 96.7596 34.867 95.9804 35.9434 95.2986C36.9953 94.5925 38.1696 93.935 39.4172 93.3506C40.6649 92.7905 41.9859 92.3279 43.2824 91.9383C43.6005 91.8409 43.9185 91.7678 44.2365 91.6704C44.5545 91.5974 44.8726 91.5243 45.1906 91.4513C45.5086 91.3782 45.8022 91.3295 46.1202 91.2565C46.4138 91.2078 46.7318 91.1347 47.0009 91.086C47.588 91.013 48.1262 90.8912 48.6644 90.8669C48.9335 90.8425 49.1782 90.7938 49.4228 90.7695C49.6674 90.7451 49.9121 90.7208 50.1322 90.6964C50.3524 90.6721 50.5726 90.6477 50.7683 90.6234C50.964 90.599 51.1597 90.599 51.3309 90.5747C51.6734 90.526 51.9915 90.4773 52.2116 90.4286C52.2116 90.4286 51.8202 90.1851 51.4288 89.9172C51.2331 89.7955 51.0374 89.6737 50.8906 89.5763C50.7438 89.4789 50.646 89.4302 50.646 89.4302C50.646 89.4302 50.6949 89.4302 50.7928 89.4059C50.8906 89.3815 51.0129 89.3815 51.1597 89.3572C51.4777 89.3328 51.8691 89.2841 52.285 89.2354C52.7009 89.2111 53.1168 89.1867 53.4348 89.1624C53.5816 89.1624 53.7284 89.138 53.8262 89.138C53.9241 89.138 53.973 89.138 53.973 89.138C53.7773 89.0893 53.2636 89.6981 52.7988 90.2825C52.5541 90.5747 52.334 90.8425 52.1627 91.0373C51.9915 91.2321 51.8447 91.3295 51.7713 91.2565C51.8691 91.2565 51.9915 91.2808 52.0893 91.2808C52.2116 91.3052 52.334 91.3052 52.4563 91.3295C52.7009 91.3539 52.9945 91.4026 53.288 91.4513C53.5816 91.5 53.9241 91.573 54.2666 91.6217C54.4378 91.6461 54.6091 91.6948 54.8048 91.7191C55.0005 91.7678 55.1717 91.8165 55.3674 91.8409C56.9086 92.1818 58.7923 92.7418 60.8228 93.5697C61.8503 93.9594 62.9022 94.4707 63.9786 95.0064C65.055 95.5665 66.1558 96.1752 67.2078 96.9057C69.3361 98.2693 71.5378 100.023 73.6417 102.019C77.8739 106.013 81.837 111.078 85.164 115.607C86.8275 117.871 88.3198 119.965 89.5919 121.743C90.228 122.644 90.7906 123.423 91.2799 124.129C91.7691 124.835 92.185 125.42 92.5031 125.882C93.4082 127.465 93.2859 127.806 92.87 127.733C92.4541 127.684 91.7936 127.222 91.7202 127.246C93.2125 128.926 93.6773 129.17 94.0932 129.389C94.4846 129.608 94.7782 129.779 95.9769 131.288C96.5395 132.214 95.3164 131.532 94.8516 131.142C96.0258 132.408 96.8331 133.821 97.2245 133.675C96.0503 131.824 97.4447 131.873 97.3713 130.753C97.3713 130.753 97.567 130.996 97.8606 131.361C98.1541 131.727 98.5455 132.214 98.9614 132.701C99.3773 133.188 99.7687 133.675 100.087 134.04C100.405 134.405 100.6 134.649 100.6 134.649L99.9644 134.916C100.356 135.355 101.163 135.598 102.288 136.207C102.851 136.499 103.512 136.913 104.221 137.473C104.564 137.765 104.979 138.058 105.371 138.423C105.762 138.788 106.178 139.202 106.619 139.689C109.701 142.757 113.419 145.752 117.578 148.285C119.706 149.527 121.884 150.695 124.183 151.669L125.04 152.035L125.92 152.424C126.532 152.668 127.168 152.911 127.779 153.106C128.097 153.203 128.391 153.325 128.709 153.423C129.027 153.52 129.321 153.617 129.639 153.715C130.25 153.91 130.886 154.056 131.498 154.226C131.253 154.567 129.1 154.299 126.923 153.763C127.584 153.983 128.44 154.275 129.272 154.518C130.103 154.786 130.911 155.005 131.522 155.298C130.96 154.981 130.935 154.859 131.204 154.835C131.351 154.835 131.547 154.835 131.791 154.884C132.036 154.908 132.305 154.957 132.599 154.981C132.892 155.03 133.161 155.078 133.431 155.103C133.7 155.127 133.92 155.151 134.067 155.176C134.385 155.2 134.458 155.176 133.993 155.03C135.901 154.957 137.883 155.005 139.913 154.981C141.944 154.957 144.023 154.908 146.103 154.737C148.158 154.567 150.212 154.226 152.145 153.715C154.053 153.203 155.839 152.497 157.331 151.621C157.331 151.426 157.405 150.841 157.478 149.965C157.527 149.527 157.552 149.015 157.6 148.455C157.625 147.895 157.674 147.262 157.674 146.58C157.698 145.241 157.649 143.707 157.503 142.124C157.429 141.321 157.307 140.517 157.16 139.713C157.013 138.91 156.842 138.082 156.622 137.303C156.426 136.524 156.182 135.744 155.912 134.989C155.643 134.235 155.35 133.528 155.032 132.822C154.714 132.14 154.396 131.483 154.053 130.874C153.711 130.266 153.368 129.705 153.026 129.194C152.365 128.171 151.68 127.343 151.142 126.735C150.628 126.126 150.237 125.761 150.066 125.615C150.335 125.371 150.506 125.103 150.702 125.103C150.604 125.079 150.482 125.079 150.384 125.103C150.286 125.128 150.188 125.176 150.09 125.249C150.041 125.274 149.992 125.322 149.968 125.347C149.919 125.395 149.894 125.42 149.87 125.469C149.821 125.517 149.797 125.566 149.772 125.615C149.748 125.663 149.723 125.712 149.723 125.761C149.723 125.761 149.87 125.931 150.017 126.102C150.164 126.272 150.31 126.467 150.31 126.467C150.286 126.516 150.237 126.589 150.212 126.637C150.164 126.686 150.139 126.71 150.115 126.735C150.041 126.783 149.992 126.832 149.968 126.856C149.87 126.881 149.797 126.856 149.723 126.808C149.552 126.71 149.43 126.589 148.965 126.93C148.843 126.783 148.818 126.637 148.843 126.467C148.843 126.394 148.867 126.296 148.891 126.223C148.916 126.15 148.965 126.077 148.989 126.004C149.161 125.712 149.381 125.42 149.552 125.201C149.356 125.371 149.014 125.444 148.794 125.566C148.72 125.59 148.671 125.639 148.647 125.688C148.598 125.736 148.549 125.785 148.525 125.834C148.476 125.956 148.427 126.102 148.476 126.321C148.28 126.369 148.133 126.321 148.06 126.248C147.962 126.175 147.913 126.077 147.864 125.98C147.815 125.882 147.742 125.785 147.644 125.712C147.595 125.688 147.546 125.663 147.448 125.639C147.375 125.615 147.277 125.615 147.155 125.639C146.91 125.858 146.616 126.272 146.176 126.54C145.76 126.832 145.222 127.051 144.659 126.93V126.808C143.999 126.735 143.412 126.759 142.849 126.856C142.286 126.954 141.748 127.076 141.21 127.197C140.672 127.295 140.109 127.417 139.546 127.368C138.984 127.343 138.372 127.222 137.785 126.856L138.103 126.686C137.712 126.369 137.076 126.223 136.415 126.029C136.317 126.004 136.244 125.98 136.146 125.931C136.048 125.882 135.926 125.834 135.828 125.785C135.608 125.688 135.388 125.59 135.167 125.493C134.947 125.395 134.727 125.249 134.507 125.103C134.287 124.957 134.091 124.811 133.871 124.665C134.311 125.055 134.531 125.761 133.382 125.298C133.137 125.079 132.917 124.908 132.672 124.738C132.452 124.568 132.207 124.421 131.987 124.251C131.767 124.081 131.547 123.934 131.327 123.788C131.106 123.642 130.911 123.521 130.691 123.35C130.275 123.033 129.883 122.766 129.516 122.425C129.149 122.084 128.807 121.719 128.513 121.305C128.513 121.305 128.024 121.134 127.51 120.939C127.266 120.842 126.997 120.745 126.825 120.696C126.63 120.623 126.507 120.55 126.507 120.55C125.578 119.698 124.257 118.456 122.691 116.8C121.125 115.144 119.266 113.05 117.26 110.542C116.233 109.276 115.205 107.961 114.08 106.475C113.517 105.721 112.93 104.966 112.343 104.211C111.756 103.432 111.144 102.628 110.533 101.824C108.013 98.6589 105.297 95.0795 102.264 91.4269C99.2061 87.7988 95.8546 84.0975 92.0872 80.7372C91.6224 80.3232 91.1331 79.9093 90.6683 79.4953C90.179 79.0814 89.6898 78.6918 89.2005 78.2778C88.9558 78.083 88.7112 77.8882 88.4666 77.6691C88.2219 77.4743 87.9773 77.2795 87.7082 77.0847C87.2189 76.6951 86.7052 76.3298 86.2159 75.9402C85.7267 75.5749 85.1885 75.2097 84.6992 74.8444C84.4546 74.674 84.1855 74.4792 83.9408 74.3087C83.6717 74.1383 83.4271 73.9678 83.158 73.7974C82.6443 73.4565 82.1305 73.1399 81.6168 72.8234C81.1031 72.5068 80.5893 72.2146 80.0756 71.8981C76.0146 69.5361 72.0271 67.8072 68.5043 66.5654C64.9816 65.3235 61.9236 64.6174 59.6485 64.1791L60.3824 64.2034C56.9331 63.5216 52.9211 63.0102 48.4932 62.9859C47.955 62.9615 47.3679 63.0102 46.8052 63.0102C46.2425 63.0346 45.6554 63.0346 45.0683 63.0833C43.9185 63.1807 42.7442 63.2537 41.5455 63.3998C39.1726 63.6677 36.7507 64.1547 34.2799 64.7878C33.6683 64.9583 33.0567 65.1287 32.4451 65.2992C31.8335 65.494 31.2219 65.6888 30.6103 65.8836C30.2923 65.981 29.9988 66.0784 29.6807 66.2001C29.3627 66.3219 29.0691 66.4193 28.7511 66.541C28.4331 66.6628 28.1395 66.7845 27.8215 66.8819C27.5035 67.0037 27.2099 67.1254 26.8919 67.2472C26.2803 67.515 25.6687 67.7829 25.0571 68.0507C24.4455 68.3186 23.834 68.6351 23.2468 68.9273C22.9533 69.0734 22.6352 69.2195 22.3417 69.39C22.0481 69.5604 21.7546 69.7309 21.4365 69.9014C20.8494 70.2423 20.2378 70.5588 19.6507 70.9484C19.0636 71.3137 18.4764 71.7033 17.8893 72.0685C17.3022 72.4581 16.7395 72.8721 16.1524 73.286C15.5653 73.6756 15.0271 74.1383 14.4644 74.5766L13.6327 75.234C13.3636 75.4532 13.0945 75.6967 12.8254 75.9402C12.2872 76.4272 11.749 76.8899 11.2108 77.3769C10.697 77.8882 10.1833 78.3996 9.66957 78.9109L9.25369 79.3249L8.83781 79.7875C8.56871 80.0797 8.27515 80.3963 8.00605 80.7128C7.46785 81.3459 6.92966 82.0034 6.41592 82.6852C5.38845 84.0732 4.43438 85.5829 3.55369 87.263C2.673 88.9432 1.89017 90.8425 1.27858 93.0097C0.691457 95.1769 0.300042 97.5875 0.348969 100.266C0.348969 100.924 0.422359 101.605 0.49575 102.287L0.544676 102.798L0.569141 102.92L0.64253 103.432C0.715921 103.894 0.813775 104.333 0.911629 104.771C1.00948 105.209 1.1318 105.672 1.22966 106.11L1.47429 106.792L1.49875 106.889L1.52322 106.938L1.79232 107.742L1.81678 107.79L1.98802 108.253C2.11034 108.569 2.23266 108.886 2.37944 109.178C2.52622 109.495 2.673 109.787 2.81978 110.104C3.11335 110.712 3.45584 111.321 3.79832 111.905C4.50777 113.074 5.31506 114.17 6.19575 115.168C7.07644 116.167 8.00605 117.043 8.93566 117.823C9.40047 118.188 9.88974 118.577 10.3545 118.918L11.064 119.405L11.7734 119.844C13.6571 121.012 15.443 121.816 17.1309 122.425C18.8189 123.034 20.3846 123.447 21.8769 123.74C24.837 124.324 27.4546 124.543 29.8764 124.592C30.488 124.616 31.0751 124.616 31.6623 124.592C31.9558 124.592 32.2494 124.592 32.5185 124.568C32.7631 124.568 33.0078 124.543 33.2524 124.543C34.182 124.495 35.0872 124.446 35.9923 124.421C36.8975 124.373 37.7537 124.3 38.6344 124.251C39.4906 124.178 40.3224 124.129 41.1541 124.056C41.9614 123.959 42.7687 123.886 43.5515 123.813C44.3344 123.715 45.0928 123.642 45.8022 123.545C49.4962 123.959 54.4867 123.18 58.303 122.766C57.2267 122.79 56.8597 122.62 56.9576 122.449C57.0065 122.352 57.1777 122.279 57.4224 122.181C57.667 122.084 58.0339 122.011 58.4254 121.938C59.8442 121.719 60.9451 121.548 61.7524 121.378C62.5842 121.207 63.1224 121.085 63.5138 120.988C64.2966 120.793 64.37 120.696 64.4679 120.598C64.5657 120.501 64.6391 120.379 65.4219 120.136C65.8134 120.014 66.376 119.844 67.1833 119.624C67.5992 119.527 68.064 119.405 68.6022 119.259C68.8713 119.186 69.1649 119.113 69.4829 119.04C69.8009 118.967 70.1189 118.87 70.4859 118.772C71.2932 118.529 72.2473 118.285 73.3237 117.993C74.4001 117.701 75.5988 117.36 76.8953 116.97C78.1919 116.605 79.5863 116.167 81.0786 115.728C81.8125 115.509 82.5953 115.241 83.3782 114.998C84.161 114.754 84.9683 114.511 85.7756 114.219C87.3902 113.659 89.1026 113.123 90.8395 112.466C91.6958 112.149 92.6009 111.832 93.4816 111.492C94.3623 111.151 95.2674 110.81 96.1726 110.469C97.9829 109.763 99.8177 109.008 101.701 108.18C103.585 107.376 105.469 106.5 107.377 105.526C108.331 105.063 109.285 104.552 110.215 104.04C111.169 103.529 112.098 102.993 113.028 102.433C113.958 101.898 114.887 101.313 115.817 100.729C116.722 100.12 117.627 99.5356 118.532 98.9025C119.413 98.2937 120.294 97.6362 121.15 96.9788C121.566 96.6379 121.982 96.297 122.397 95.9804C122.593 95.81 122.813 95.6395 123.009 95.4691C123.205 95.2986 123.425 95.1282 123.621 94.9577C124.012 94.6168 124.428 94.2759 124.819 93.9107C125.211 93.5454 125.578 93.2045 125.969 92.8392C126.165 92.6688 126.336 92.474 126.532 92.3035C126.728 92.1087 126.899 91.9383 127.094 91.7435C127.461 91.3782 127.828 91.013 128.195 90.6477C131.009 87.677 133.259 84.6819 134.972 81.979C136.684 79.2762 137.907 76.8655 138.69 75.1123C139.253 73.1156 139.791 70.9484 140.28 68.7082C140.5 67.5637 140.745 66.4436 140.916 65.2505C140.99 64.6661 141.112 64.0817 141.161 63.4729L141.332 61.671C141.406 61.0622 141.406 60.4535 141.43 59.8447C141.43 59.5282 141.455 59.236 141.455 58.9438V58.0184C141.43 57.4097 141.43 56.8009 141.406 56.1922L141.381 55.7295L141.332 55.2912C141.308 54.999 141.283 54.7068 141.234 54.4146C140.965 52.077 140.476 49.8368 139.791 47.8401L140.231 48.5949C140.158 48.3271 140.06 48.0105 139.962 47.6696C139.864 47.3287 139.742 46.9391 139.62 46.5252C139.546 46.306 139.497 46.1112 139.424 45.8677C139.351 45.6485 139.277 45.405 139.179 45.1859C139.008 44.7232 138.837 44.1875 138.641 43.6762C137.858 41.5577 136.733 39.0983 135.241 36.5659C133.773 34.0335 131.963 31.4037 129.859 28.92C127.779 26.4362 125.455 24.0743 123.034 21.9314C118.165 17.6458 112.881 14.1881 108.282 11.7287C107.988 11.5826 107.719 11.4122 107.426 11.2661C107.157 11.12 106.888 10.9982 106.619 10.8764C106.08 10.6086 105.567 10.3651 105.053 10.1216C104.05 9.63459 103.096 9.19628 102.24 8.78233C100.478 8.05182 99.0593 7.49177 98.1052 7.12652L99.0593 7.68657C98.2031 7.41872 97.4691 7.17522 96.8331 6.93172C96.197 6.71256 95.6589 6.54211 95.194 6.34731C94.2644 5.98206 93.6039 5.64115 93.0168 5.30025C92.4297 4.95935 91.867 4.5941 91.1576 4.18014C90.4237 3.79054 89.5185 3.37658 88.173 2.86523C88.3443 3.54704 86.9254 3.57139 85.1885 3.42528C83.4271 3.32788 81.3477 3.01133 80.2224 2.76783L80.3691 2.52433C80.149 2.47563 79.9288 2.45128 79.6842 2.40258C79.4395 2.37823 79.1704 2.32953 78.8769 2.30518C78.3142 2.25648 77.7026 2.18342 77.0421 2.11037C76.3816 2.03732 75.6721 1.98862 74.9382 1.91557C74.5713 1.89122 74.2043 1.84252 73.8129 1.81817C73.4215 1.79382 73.0546 1.76947 72.6631 1.76947C71.0975 1.69642 69.4829 1.59902 67.8928 1.52597C66.3026 1.50162 64.737 1.42857 63.3181 1.35552L63.5872 0.722412C62.3885 0.746762 60.9207 0.844163 59.355 0.819813C58.5722 0.819813 57.7649 0.819813 56.9576 0.795463C56.5417 0.771112 56.1503 0.795463 55.7344 0.795463C55.3185 0.795463 54.9026 0.795463 54.5112 0.819813C53.7039 0.819813 52.8966 0.819813 52.1138 0.844163C51.7224 0.844163 51.3554 0.844163 50.9885 0.844163C50.6215 0.844163 50.2546 0.868514 49.9121 0.892864C48.5176 0.965914 47.3189 1.01461 46.4627 1.08767C45.9734 1.11202 45.4597 1.08767 44.946 1.11202C44.4322 1.13637 43.894 1.16072 43.3314 1.20942C42.2305 1.25812 41.0807 1.33117 39.882 1.37987C39.2704 1.40422 38.6833 1.47727 38.0473 1.52597C37.4357 1.59902 36.7996 1.64772 36.1636 1.72077C34.8915 1.86687 33.5704 1.96427 32.2739 2.23213C30.9528 2.45128 29.6073 2.69478 28.2618 2.93828C27.9194 2.98698 27.6013 3.08438 27.2588 3.15743L26.2558 3.40093C25.5953 3.57139 24.9103 3.74184 24.2498 3.91229C23.5893 4.08274 22.9288 4.27754 22.2683 4.47234C21.6078 4.6915 20.9717 4.91065 20.3357 5.15415C19.0636 5.6168 17.7915 6.10381 16.5683 6.61516C16.5683 6.61516 16.1279 6.63951 15.443 6.71256C14.758 6.78561 13.8039 6.88301 12.8009 7.05347C11.7979 7.19957 10.7704 7.41872 9.96313 7.61352C9.15584 7.80832 8.61764 7.95442 8.61764 7.95442C8.61764 7.95442 8.54425 8.00312 8.44639 8.07618C8.34854 8.14923 8.20176 8.24663 8.07944 8.34403C7.81034 8.53883 7.54124 8.73363 7.54124 8.73363C7.54124 8.73363 7.54124 8.83103 7.51678 9.02583C7.51678 9.22063 7.49232 9.51284 7.49232 9.85374C7.49232 10.5599 7.51678 11.5826 7.66356 12.7758C7.81034 13.9689 8.05498 15.3325 8.49532 16.7205C8.9112 18.1085 9.52279 19.5695 10.2567 20.9331C11.0151 22.2967 11.8958 23.6116 12.8498 24.8291C13.3391 25.4379 13.8528 25.9979 14.3666 26.5093C14.4889 26.631 14.6357 26.7771 14.7824 26.8989C14.9292 27.0206 15.0515 27.1424 15.1739 27.2641C15.443 27.5076 15.6876 27.7511 15.9567 27.9946C16.9842 28.9443 18.0116 29.7722 19.0146 30.4053C19.9932 31.0384 20.9473 31.5254 22.097 31.6472L22.2438 32.2803C22.2438 32.2803 22.5618 32.1098 22.9533 31.9394C23.1245 31.842 23.3447 31.7689 23.4915 31.6959C23.6382 31.6228 23.7361 31.5741 23.7361 31.5741C24.788 31.3306 25.6687 30.9167 26.2069 30.6975C26.7451 30.454 26.9653 30.3566 26.9897 30.6975C26.9897 30.6975 26.794 30.7462 26.476 30.8436C26.158 30.941 25.7421 31.0384 25.3507 31.1845C25.155 31.2576 24.9593 31.3063 24.7636 31.3793C24.5923 31.428 24.4211 31.5011 24.2743 31.5498C24.0052 31.6472 23.8339 31.6959 23.8339 31.6959C24.3721 31.5498 24.7146 31.4767 24.8859 31.4767C25.0571 31.4767 25.0816 31.5498 24.9837 31.6715C24.8125 31.8907 24.2988 32.2803 24.0052 32.5968C24.4211 32.4751 24.8859 32.329 25.3262 32.2316C25.791 32.1098 26.2558 32.0368 26.6717 32.0124C27.0631 31.6228 26.2314 31.8663 25.8155 31.842C26.4271 31.5254 27.1121 31.0871 27.8949 30.6975C28.2863 30.5027 28.6777 30.3079 29.0691 30.1618C29.2649 30.0888 29.485 30.0157 29.6807 29.967C29.8764 29.9183 30.0966 29.894 30.3168 29.8696C32.8365 29.2852 30.7571 30.8436 33.6683 30.1375C33.9129 30.0888 34.1576 30.0157 34.3777 29.967L35.1116 29.8453C35.6009 29.7722 36.0902 29.6748 36.555 29.6018L37.9983 29.3583C38.243 29.3096 38.4876 29.2609 38.7322 29.2365L39.4661 29.1635C40.4447 29.0417 41.3988 28.92 42.3773 28.8225C42.6219 28.7982 42.8666 28.7495 43.1112 28.7495L46.7807 28.506C47.0254 28.4816 47.27 28.4573 47.5146 28.4573H48.2485C49.2271 28.4329 50.1812 28.4086 51.1597 28.4086C51.4043 28.4086 51.649 28.3842 51.8936 28.4086L54.0953 28.4816C55.0739 28.5303 56.0279 28.506 57.0065 28.6034C57.985 28.6764 58.9391 28.7495 59.9176 28.8225C60.4069 28.8469 60.8717 28.92 61.361 28.9687L62.8043 29.1391C64.737 29.3096 66.6451 29.6992 68.5777 29.9914C69.067 30.0644 69.5318 30.1618 70.0211 30.2592C70.4859 30.3566 70.9752 30.454 71.44 30.5514C72.394 30.7462 73.3481 30.9167 74.3022 31.1845C75.2563 31.428 76.2104 31.6715 77.1644 31.8907L77.5314 31.9881L77.8739 32.0855L78.5833 32.3046C79.0481 32.4507 79.5129 32.5725 80.0022 32.7186C80.2713 33.0838 79.8554 32.9377 79.3906 32.9377C80.5404 33.2056 81.6657 33.4734 82.7177 33.863C83.794 34.2283 84.846 34.5448 85.849 34.9101C86.852 35.3241 87.855 35.7137 88.858 36.0789L89.6164 36.3711L90.3503 36.6877C90.8395 36.9068 91.3288 37.1016 91.8425 37.2964C92.7966 38.0756 92.8945 38.5626 93.0902 38.9522C93.0168 38.7574 94.2155 39.2444 96.0013 40.1941C97.7627 41.1438 100.087 42.6048 102.117 44.2119C103.145 45.0154 104.099 45.8677 104.906 46.6713C105.738 47.4748 106.423 48.254 106.961 48.9115C107.988 50.3968 108.502 51.2978 108.527 51.3708Z" fill="#10B981"/>
</svg>
